Simulation
nRows=40
nColumns=15
endheader
time  TH_x TH_y TH_z SC_y  SC_z  SC_x  AC_y  AC_z  AC_x  GH_y  GH_z  GH_yy  EL_x  PS_y
0.0  0.000000  0.000000  0.000000  -40.97484877243665  6.293857566463187  5.290427962726946  38.85731520866136  -1.49907783044185  -7.491941592642267  84.71243855696292  7.081624790465831  -53.842534830423226  22.5880603897099  120.000000
0.05745  0.000000  0.000000  0.000000  -39.69267780387314  5.544887848894644  4.3657796235582556  39.784234594036775  -1.9095962526533967  -6.2524415413540195  51.29389652870683  7.186103423875631  -23.05887484874145  22.028942634944627  120.000000
0.1149  0.000000  0.000000  0.000000  -38.34449642725611  4.621426615620918  3.253349748799812  40.84358649949044  -2.477882952146813  -4.957126384190332  26.269497387906995  9.148383124402354  -0.6860051609878242  21.650873787122606  120.000000
0.17235  0.000000  0.000000  0.000000  -36.99721973387731  3.4638373984728594  1.9854080978566937  42.03701777966608  -3.201087372115379  -3.56495893011826  10.870402922483995  12.165248327527413  11.981841836887053  21.52757268707874  120.000000
0.2298  0.000000  0.000000  0.000000  -35.73197221397448  2.0094648019289543  0.6090386907837099  43.41042554469434  -4.049957769312976  -2.0206618215008803  0.890498738373047  15.905595107987283  19.115844987691403  21.66717775444712  120.000000
0.28725  0.000000  0.000000  0.000000  -34.613735107295305  0.2624110833910044  -0.8283255628699309  44.9976348017615  -4.987259904627144  -0.3133885262592782  -6.142893910523607  20.328985988926135  23.18748803025491  22.016728340594813  120.000000
0.3447  0.000000  0.000000  0.000000  -33.71062179641792  -1.6995889320123307  -2.226128834906838  46.7537135230596  -6.009841296683162  1.5066350865194917  -11.390261686491966  25.431582045943053  25.38345222775997  22.48215023548691  120.000000
0.40215  0.000000  0.000000  0.000000  -33.072430955981915  -3.7456769546188364  -3.4618918889686476  48.57641994176832  -7.11712042633579  3.361913890013839  -15.431138877322772  31.153007011853585  26.32547845651853  22.942780571952206  120.000000
0.4596  0.000000  0.000000  0.000000  -32.73292124538141  -5.649452667187586  -4.452284816929069  50.35878050250596  -8.283923784856455  5.203674295784756  -18.5914784880411  37.339515781655194  26.388586870483646  23.293658915375396  120.000000
0.51705  0.000000  0.000000  0.000000  -32.690929120988095  -7.167513376147106  -5.239212428242732  52.0342624167351  -9.365159883769868  7.066321066905413  -21.087665793698598  43.742756585987514  25.83256139394794  23.45996029337546  120.000000
0.5745  0.000000  0.000000  0.000000  -32.89872934219107  -8.11603892784362  -5.946068225408364  53.627062991704236  -10.101257458729613  9.023514614023728  -23.02150520112742  50.04167527750893  24.808693331122612  23.419480747993557  120.000000
0.63195  0.000000  0.000000  0.000000  -33.30824070613049  -8.404681857441272  -6.666963689655018  55.19490064054115  -10.211476048472592  11.080500171289769  -24.43014475389285  55.88816794321467  23.408634725347245  23.193371370007704  120.000000
0.6894  0.000000  0.000000  0.000000  -33.92901179492285  -8.0110946160781  -7.463362858729077  56.76179403761455  -9.489684557462196  13.175777864503106  -25.341188163511895  60.97082031135109  21.70824412692518  22.82357141792505  120.000000
0.74685  0.000000  0.000000  0.000000  -34.788920929251496  -6.9656547976978  -8.358818288622615  58.302315130477304  -7.830525281357128  15.22751286566827  -25.80350749947586  65.05469465072633  19.793678913913816  22.36001298729743  120.000000
0.8043  0.000000  0.000000  0.000000  -35.848104574046864  -5.365496755395102  -9.318494254016159  59.75939906484171  -5.233405106350169  17.162775345557634  -25.93933303526438  68.01986076823857  17.80106983008025  21.853919180349536  120.000000
0.86175  0.000000  0.000000  0.000000  -37.00709866076392  -3.3673422834634583  -10.264421190748413  61.04018120895048  -1.8072038062226514  18.91535322760276  -25.885711211437503  69.84484759572715  15.822714702612677  21.34411387075635  120.000000
0.9192  0.000000  0.000000  0.000000  -38.174448864276165  -1.1631024927196707  -11.102856815676313  62.01511303958438  2.2421048981997553  20.421969305333132  -25.676130588608476  70.59824419676596  13.805798293824607  20.84347911076426  120.000000
0.97665  0.000000  0.000000  0.000000  -39.29586408933233  1.049953325803226  -11.731856717403373  62.60617027777454  6.625876066889348  21.664651938637665  -25.285858252941622  70.51251536012379  11.682899740530628  20.356910172341024  120.000000
1.0341  0.000000  0.000000  0.000000  -40.353084245850056  3.0947763187105246  -12.065815390838043  62.81342305355708  11.000792985668218  22.680906468487326  -24.68885012762416  69.98067875744226  9.470758307044877  19.892764606963343  120.000000
1.09155  0.000000  0.000000  0.000000  -41.35090727138441  4.868750067705123  -12.035835529123098  62.69895412751847  15.028111766692433  23.517245577417658  -23.890036655079875  69.36767348737986  7.266728132359171  19.456651575882617  120.000000
1.149  0.000000  0.000000  0.000000  -42.29801250954403  6.375620157854337  -11.563243514191731  62.35426747856783  18.460570762329468  24.202276193861707  -22.95311051484355  68.82688290857696  5.234966215831096  19.048647123546274  120.000000
1.20645  0.000000  0.000000  0.000000  -43.20463191630343  7.663895174933872  -10.600302151238726  61.88099962798947  21.152960198054767  24.744700337735487  -21.95380343465817  68.38566219387864  3.523124603603201  18.665656960728892  120.000000
1.2639  0.000000  0.000000  0.000000  -44.08208196041766  8.76993205319369  -9.17467523254753  61.38024983715888  23.06011864020032  25.13717771367265  -20.950723225730382  68.04623351687685  2.199731252598058  18.306282882415864  120.000000
1.32135  0.000000  0.000000  0.000000  -44.929146913971955  9.7063238855411  -7.400998669284081  60.93456994823202  24.23835760275365  25.37053741293497  -19.989711216594152  67.7940589624486  1.2519712711959816  17.97300966366984  120.000000
1.3788  0.000000  0.000000  0.000000  -45.720871810696266  10.46036546670199  -5.470993993127709  60.59631877200746  24.821345591610907  25.446742048600527  -19.112894611318207  67.60960608542617  0.6065460253486162  17.673003228016896  120.000000
1.43625  0.000000  0.000000  0.000000  -46.403321013355765  11.012284672922043  -3.6244099022370464  60.38719210416644  24.974887817024836  25.384414966990665  -18.36091549882912  67.47485108435257  0.1621110798324842  17.415548768272938  120.000000
1.4937  0.000000  0.000000  0.000000  -46.91021415759165  11.35001713101484  -2.100394130183647  60.313139011892105  24.847784701742647  25.21137000239495  -17.77253997027587  67.37634229510248  -0.17857737322139605  17.2104125786141  120.000000
1.55115  0.000000  0.000000  0.000000  -47.186695602513446  11.47437842391091  -1.0967861188318928  60.37101428505452  24.545391258788342  24.96131409552899  -17.382687982178048  67.3059552663139  -0.48548206907726554  17.065807229206918  120.000000
1.6086  0.000000  0.000000  0.000000  -47.205586948344866  11.394774510397006  -0.7437749137263464  60.560369286623825  24.125370280250817  24.673886594089343  -17.218266128010935  67.26012376869325  -0.7913883988479733  16.986249927299532  120.000000
1.66605  0.000000  0.000000  0.000000  -46.97253665386087  11.123527881588185  -1.0905160894517447  60.8843337357254  23.60060162997349  24.397954938675383  -17.291832105441966  67.23836368878186  -1.0932538958201208  16.971849410473627  120.000000
1.7235  0.000000  0.000000  0.000000  -46.52616621524665  10.671236450230003  -2.1000001360722877  61.34443846790923  22.9452381664971  24.189860525480867  -17.597692410259395  67.24194887374411  -1.3612693860222662  17.015093197647783  120.000000
1.78095  0.000000  0.000000  0.000000  -45.92512753085039  10.044680288253037  -3.657170328167978  61.93189674133023  22.101497603151284  24.102972783575503  -18.111995965896625  67.27318364775202  -1.5496728899568677  17.098867988329104  120.000000
1.8384  0.000000  0.000000  0.000000  -45.23153210332096  9.247488663873549  -5.586902745594278  62.623299281909176  20.98278839633219  24.171563536006232  -18.794350738868115  67.334410340206  -1.6119032433822889  17.198317654881407  120.000000
1.89585  0.000000  0.000000  0.000000  -44.48894489847203  8.274520256623218  -7.6754488694839385  63.37499432568707  19.488931959838705  24.394962872481454  -19.598816277556544  67.4278729602248  -1.5125380013389682  17.287092518183574  120.000000
1.9533  0.000000  0.000000  0.000000  -43.71188299583267  7.107728867404142  -9.698884968258112  64.12071107204059  17.531655934844196  24.731217130844033  -20.485042751717778  67.55482893939403  -1.242428244784027  17.343497482802977  120.000000
2.01075  0.000000  0.000000  0.000000  -42.88673612147094  5.715708966159465  -11.451532590036079  64.77486094114049  15.057511568680933  25.093643021292458  -21.425681962004933  67.71397670806903  -0.8301268617181025  17.356469911702945  120.000000
2.0682  0.000000  0.000000  0.000000  -41.97535165816183  4.058503154077233  -12.766556796015253  65.23965258997842  12.06049789581647  25.358048458853467  -22.3989355947896  67.89775958365327  -0.3506874641493954  17.324026941996262  120.000000
2.1256500000000003  0.000000  0.000000  0.000000  -40.92954521062452  2.1095849774708126  -13.525432277940755  65.42049287780138  8.578250287392711  25.377057785159163  -23.3675350237136  68.08769625177301  0.08069473591977144  17.24656094984889  120.000000
2.1831  0.000000  0.000000  0.000000  -39.717940812702764  -0.11476461690704265  -13.656908685699134  65.2398338675112  4.687592305535348  25.011404195948135  -24.25089452733445  68.25131079341517  0.3340782214070029  17.118746774533136  120.000000
2.24055  0.000000  0.000000  0.000000  -38.3747624369067  -2.4687938854352502  -13.103117002742463  64.63941129559849  0.5332751157359849  24.152827189654445  -24.945860240770376  68.18683445382551  0.3504108129201202  16.930841566739367  120.000000
